<svg width="64" height="64" viewBox="0 0 64 64" fill="none" xmlns="http://www.w3.org/2000/svg">
<rect x="0.5" y="0.5" width="63" height="63" rx="12.5" fill="white"/>
<rect x="0.5" y="0.5" width="63" height="63" rx="12.5" stroke="#DCE0E5"/>
<rect x="12" y="12" width="40" height="40" rx="3.5" fill="#212A31"/>
<rect x="15" y="15" width="10" height="1.5" rx="0.75" fill="white" fill-opacity="0.4"/>
<rect x="27" y="15" width="10" height="1.5" rx="0.75" fill="white" fill-opacity="0.4"/>
<rect x="39" y="15" width="10" height="1.5" rx="0.75" fill="white" fill-opacity="0.4"/>
<rect x="15" y="19" width="10" height="6" rx="1.5" fill="white"/>
<rect x="15" y="27" width="10" height="8" rx="1.5" fill="white"/>
<rect x="15" y="37" width="10" height="6" rx="1.5" fill="white"/>
<rect x="27" y="19" width="10" height="8" rx="1.5" fill="#F59E0B"/>
<rect x="27" y="29" width="10" height="6" rx="1.5" fill="#F59E0B"/>
<rect x="39" y="19" width="10" height="6" rx="1.5" fill="#78716C"/>
</svg>
